<?xml version="1.0" encoding="UTF-8"?>
<svg width="377px" height="124px" viewBox="0 0 377 124" version="1.1" xmlns="http://www.w3.org/2000/svg" xmlns:xlink="http://www.w3.org/1999/xlink">
    <!-- Generator: Sketch 50.2 (55047) - http://www.bohemiancoding.com/sketch -->
    <title>LOGO</title>
    <desc>Created with Sketch.</desc>
    <defs></defs>
    <g id="LOGO" stroke="none" stroke-width="1" fill="none" fill-rule="evenodd">
        <g id="XMLID_82_" fill="#FFFFFF">
            <path d="M0.1,66.5 C0.1,56.3 8.3,48 18.6,48 C26.8,48 33.7,53.3 36.1,60.6 L31.5,60.6 C29.3,55.7 24.3,52.2 18.5,52.2 C10.6,52.2 4.2,58.6 4.2,66.5 C4.2,74.4 10.6,80.8 18.5,80.8 C24.3,80.8 29.2,77.4 31.5,72.4 L36.1,72.4 C33.6,79.7 26.7,85 18.6,85 C8.3,85 0.1,76.7 0.1,66.5 Z" id="XMLID_90_"></path>
            <path d="M84.4,90.4 C80.3,92.9 75.4,94.3 70.3,94.3 C57,94.3 45.9,84.9 43.2,72.5 L49.8,72.5 C52.4,81.4 60.6,88 70.4,88 C74,88 77.5,87.1 80.5,85.5 L84.4,90.4 Z M91.6,48.8 C95.6,53.6 98,59.8 98,66.6 C98,72.5 96.2,77.9 93.1,82.4 L88.9,77.2 C90.7,74.1 91.7,70.5 91.7,66.6 C91.7,61.8 90.1,57.4 87.5,53.9 L91.6,48.8 Z M43.2,60.6 C45.9,48.1 57,38.8 70.3,38.8 C74.6,38.8 78.7,39.8 82.3,41.5 L78.1,46.6 C75.7,45.6 73,45.1 70.3,45.1 C60.5,45.1 52.3,51.6 49.7,60.6 L43.2,60.6 Z" id="XMLID_86_"></path>
            <path d="M82.7,22.5 C82.7,10.1 92.7,0.1 105.1,0.1 C117.5,0.1 127.5,10.1 127.5,22.5 C127.5,34.9 117.5,44.9 105.1,44.9 C101.9,44.9 98.9,44.2 96.2,43.1 L99.6,38.9 C101.3,39.5 103.2,39.8 105.1,39.8 C114.6,39.8 122.3,32.1 122.3,22.6 C122.3,13.1 114.6,5.4 105.1,5.4 C95.6,5.4 87.9,13.1 87.9,22.6 C87.9,25.9 88.8,29 90.4,31.6 L87,35.6 C84.3,31.9 82.7,27.4 82.7,22.5 Z" id="XMLID_85_"></path>
            <path d="M86.6,105.2 C86.6,101.9 87.5,98.8 89,96.1 L91.9,99.7 C91.2,101.4 90.8,103.3 90.8,105.2 C90.8,113.1 97.2,119.5 105.1,119.5 C113,119.5 119.4,113.1 119.4,105.2 C119.4,97.3 113,90.9 105.1,90.9 C103.5,90.9 102,91.2 100.6,91.6 L97.8,88.1 C100,87.1 102.5,86.6 105.1,86.6 C115.3,86.6 123.6,94.9 123.6,105.1 C123.6,115.3 115.3,123.6 105.1,123.6 C94.9,123.7 86.6,115.4 86.6,105.2 Z" id="XMLID_84_"></path>
            <path d="M97.3,37.4 L81.7,56.7 C84,59.3 85.4,62.8 85.4,66.5 C85.4,69.4 84.6,72.1 83.2,74.3 L100.9,96.1 C102.2,95.5 103.7,95.1 105.3,95.1 C110.8,95.1 115.3,99.6 115.3,105.1 C115.3,108.9 113.2,112.2 110.1,113.9 L107.7,109.7 C109.3,108.8 110.4,107.1 110.4,105.1 C110.4,102.2 108.1,99.9 105.2,99.9 C102.3,99.9 100,102.2 100,105.1 C100,107.1 101.1,108.8 102.7,109.7 L100.3,113.9 C97.2,112.2 95.1,108.9 95.1,105.1 C95.1,103.4 95.5,101.9 96.2,100.5 L79.2,79.5 L74.7,72 C76.3,70.7 77.3,68.8 77.3,66.6 C77.3,62.7 74.2,59.6 70.3,59.6 C66.4,59.6 63.3,62.7 63.3,66.6 C63.3,68.8 64.3,70.7 65.9,72 L61.8,79 C58.7,76.9 56.4,73.6 55.6,69.8 L28.1,69.8 C27.4,72 25.9,73.9 24,75.1 L21.6,70.9 C23,70 23.9,68.4 23.9,66.6 C23.9,63.7 21.6,61.4 18.7,61.4 C15.8,61.4 13.5,63.7 13.5,66.6 C13.5,68.7 14.8,70.5 16.6,71.4 L14,75.5 C10.8,73.8 8.5,70.5 8.5,66.6 C8.5,61.1 13,56.6 18.5,56.6 C22.9,56.6 26.7,59.5 28,63.5 L55.5,63.5 C57,56.6 63,51.5 70.3,51.5 C72.6,51.5 74.7,52 76.6,52.9 L95.4,29.7 C93.9,27.7 93,25.2 93,22.5 C93,15.8 98.4,10.3 105.2,10.3 C111.9,10.3 117.4,15.7 117.4,22.5 C117.4,27.2 114.8,31.2 110.9,33.3 L107.7,27.3 C109.4,26.4 110.6,24.6 110.6,22.6 C110.6,19.7 108.2,17.3 105.3,17.3 C102.4,17.3 100,19.7 100,22.6 C100,24.7 101.2,26.5 102.9,27.3 L97.3,37.4 Z" id="XMLID_83_" fill-rule="nonzero"></path>
        </g>
        <g id="XMLID_38_" transform="translate(142.000000, 12.000000)" fill="#FFFFFF" fill-rule="nonzero">
            <polygon id="XMLID_80_" points="7.1 13.8 7.1 43.3 0.5 43.3 0.5 1.5 5.7 1.5 29.7 31.7 29.7 1.5 36.4 1.5 36.4 43.3 30.9 43.3"></polygon>
            <path d="M58.5,43.9 C56.1,43.9 53.9,43.5 52,42.6 C50,41.8 48.4,40.6 47,39.1 C45.6,37.6 44.5,36 43.8,34 C43,32.1 42.6,30 42.6,27.9 C42.6,25.7 43,23.7 43.8,21.7 C44.6,19.8 45.6,18 47,16.6 C48.4,15.1 50.1,14 52,13.1 C54,12.3 56.2,11.8 58.6,11.8 C61,11.8 63.2,12.2 65.1,13.1 C67,14 68.7,15.1 70.1,16.6 C71.5,18 72.5,19.7 73.3,21.6 C74,23.5 74.4,25.5 74.4,27.6 C74.4,28.1 74.4,28.5 74.3,28.9 C74.3,29.3 74.2,29.7 74.2,29.9 L49.5,29.9 C49.6,31.3 49.9,32.5 50.5,33.6 C51,34.7 51.7,35.7 52.6,36.5 C53.4,37.3 54.4,37.9 55.5,38.4 C56.6,38.8 57.7,39 58.9,39 C59.8,39 60.6,38.9 61.5,38.7 C62.3,38.5 63.1,38.2 63.8,37.8 C64.5,37.4 65.1,36.9 65.7,36.3 C66.3,35.7 66.7,35.1 67,34.4 L72.5,36 C71.4,38.3 69.7,40.2 67.2,41.7 C64.6,43.2 61.7,43.9 58.5,43.9 Z M67.8,25.6 C67.7,24.3 67.4,23.1 66.8,22 C66.3,20.9 65.6,20 64.8,19.2 C64,18.4 63,17.8 61.9,17.4 C60.8,17 59.6,16.8 58.4,16.8 C57.2,16.8 56,17 54.9,17.4 C53.8,17.8 52.9,18.4 52,19.2 C51.2,20 50.5,20.9 50,22 C49.5,23.1 49.2,24.3 49.1,25.6 L67.8,25.6 Z" id="XMLID_77_"></path>
            <path d="M96.5,41.7 C95.7,42.1 94.5,42.5 93.1,43 C91.6,43.5 90.1,43.7 88.4,43.7 C87.4,43.7 86.4,43.6 85.5,43.3 C84.6,43 83.8,42.6 83.1,42.1 C82.4,41.5 81.9,40.8 81.5,39.9 C81.1,39 80.9,37.9 80.9,36.7 L80.9,17.5 L76.8,17.5 L76.8,12.5 L80.9,12.5 L80.9,2.3 L87.4,2.3 L87.4,12.4 L94.1,12.4 L94.1,17.4 L87.4,17.4 L87.4,34.6 C87.5,35.7 87.8,36.5 88.4,37 C89,37.5 89.8,37.7 90.7,37.7 C91.6,37.7 92.5,37.5 93.3,37.2 C94.1,36.9 94.7,36.6 95.1,36.4 L96.5,41.7 Z" id="XMLID_75_"></path>
            <polygon id="XMLID_73_" points="139.5 12.5 145.7 12.5 132.7 43.4 127.3 43.4 121.6 29 115.9 43.3 110.5 43.3 97.5 12.4 103.7 12.4 113.7 37 118.2 25.6 112.8 12.5 118.1 12.5 121.6 22.2 125.1 12.5 130.4 12.5 125.1 25.6 129.6 37"></polygon>
            <path d="M162.7,43.9 C160.3,43.9 158.1,43.5 156.1,42.6 C154.2,41.7 152.5,40.6 151.1,39.1 C149.7,37.6 148.7,35.9 147.9,34 C147.2,32.1 146.8,30 146.8,27.9 C146.8,25.8 147.2,23.7 147.9,21.8 C148.6,19.9 149.7,18.2 151.1,16.7 C152.5,15.2 154.2,14.1 156.1,13.2 C158,12.3 160.2,11.9 162.6,11.9 C165,11.9 167.2,12.3 169.1,13.2 C171,14.1 172.7,15.2 174.1,16.7 C175.5,18.2 176.6,19.9 177.3,21.8 C178,23.7 178.4,25.8 178.4,27.9 C178.4,30 178,32.1 177.3,34 C176.6,35.9 175.5,37.6 174.1,39.1 C172.7,40.6 171,41.7 169.1,42.6 C167.3,43.5 165.1,43.9 162.7,43.9 Z M153.5,28 C153.5,29.5 153.7,30.9 154.2,32.1 C154.7,33.4 155.3,34.5 156.1,35.4 C156.9,36.3 157.9,37.1 159,37.6 C160.1,38.1 161.3,38.4 162.6,38.4 C163.9,38.4 165.1,38.1 166.2,37.6 C167.3,37.1 168.3,36.3 169.1,35.4 C169.9,34.5 170.6,33.4 171,32.1 C171.5,30.8 171.7,29.5 171.7,28 C171.7,26.5 171.5,25.2 171,23.9 C170.5,22.6 169.9,21.5 169.1,20.6 C168.3,19.7 167.3,18.9 166.2,18.4 C165.1,17.9 163.9,17.6 162.6,17.6 C161.3,17.6 160.2,17.9 159,18.4 C157.9,19 156.9,19.7 156.1,20.6 C155.3,21.5 154.6,22.7 154.1,23.9 C153.8,25.2 153.5,26.5 153.5,28 Z" id="XMLID_70_"></path>
            <path d="M201.7,18.1 C199.2,18.2 196.9,18.8 195,19.8 C193.1,20.9 191.7,22.4 190.8,24.4 L190.8,43.3 L184.3,43.3 L184.3,12.5 L190.3,12.5 L190.3,19.4 C191.4,17.3 192.7,15.6 194.5,14.3 C196.2,13 198,12.3 200,12.2 C200.4,12.2 200.7,12.2 201,12.2 C201.3,12.2 201.5,12.2 201.7,12.3 L201.7,18.1 Z" id="XMLID_68_"></path>
            <polygon id="XMLID_65_" points="227.9 43.3 218 29.1 212.9 33.9 212.9 43.3 206.4 43.3 206.4 0.3 212.9 0.3 212.9 27.6 227.1 12.6 234.2 12.6 222.2 25.5 234.8 43.4 227.9 43.4"></polygon>
            <path d="M33.4,88.2 C33.4,89.9 33.1,91.4 32.4,92.7 C31.7,94 30.8,95.2 29.6,96.1 C28.4,97 27.1,97.7 25.5,98.2 C23.9,98.7 22.3,98.9 20.5,98.9 L0.5,98.9 L0.5,57.1 L22.1,57.1 C23.6,57.1 24.9,57.4 26.1,58 C27.3,58.6 28.3,59.4 29.1,60.4 C29.9,61.4 30.6,62.5 31,63.8 C31.5,65.1 31.7,66.4 31.7,67.7 C31.7,69.7 31.2,71.7 30.1,73.5 C29.1,75.3 27.6,76.6 25.6,77.5 C28,78.2 29.9,79.5 31.3,81.4 C32.7,83.2 33.4,85.5 33.4,88.2 Z M7.1,62.8 L7.1,75.1 L19.3,75.1 C20.1,75.1 20.9,74.9 21.6,74.6 C22.3,74.3 22.9,73.9 23.4,73.3 C23.9,72.8 24.3,72.1 24.6,71.4 C24.9,70.7 25,69.8 25,68.9 C25,67.1 24.5,65.6 23.5,64.4 C22.5,63.2 21.2,62.7 19.6,62.7 L7.1,62.7 L7.1,62.8 Z M26.6,86.9 C26.6,86 26.5,85.2 26.2,84.4 C25.9,83.6 25.5,82.9 25,82.3 C24.5,81.7 23.9,81.2 23.2,80.9 C22.5,80.5 21.7,80.4 20.9,80.4 L7.1,80.4 L7.1,93.2 L20.5,93.2 C21.4,93.2 22.2,93 22.9,92.7 C23.6,92.4 24.3,91.9 24.8,91.3 C25.4,90.7 25.8,90.1 26.1,89.3 C26.4,88.6 26.6,87.8 26.6,86.9 Z" id="XMLID_59_"></path>
            <path d="M49,99.5 C45.8,99.5 43.3,98.4 41.7,96.3 C40,94.2 39.2,91.1 39.2,86.9 L39.2,68.1 L45.7,68.1 L45.7,85.7 C45.7,91.2 47.7,94 51.6,94 C53.4,94 55.2,93.4 56.9,92.3 C58.6,91.2 59.8,89.5 60.7,87.3 L60.7,68.1 L67.2,68.1 L67.2,91.3 C67.2,92 67.3,92.6 67.6,92.9 C67.9,93.2 68.3,93.4 69,93.4 L69,98.9 C68.3,99 67.8,99.1 67.3,99.1 C66.9,99.1 66.5,99.2 66.1,99.2 C64.9,99.2 63.9,98.9 63.1,98.2 C62.3,97.6 61.8,96.7 61.8,95.7 L61.7,92.6 C60.3,94.8 58.5,96.5 56.3,97.7 C54,99 51.6,99.5 49,99.5 Z" id="XMLID_56_"></path>
            <path d="M75.4,63 L75.4,55.9 L81.9,55.9 L81.9,63 L75.4,63 Z M75.4,99 L75.4,68.1 L81.9,68.1 L81.9,99 L75.4,99 Z" id="XMLID_51_"></path>
            <path d="M89.7,55.9 L96.2,55.9 L96.2,90 C96.2,91.1 96.5,92 97.1,92.7 C97.7,93.3 98.5,93.7 99.6,93.7 C100,93.7 100.5,93.6 101.1,93.5 C101.7,93.3 102.2,93.2 102.7,93 L103.6,98.1 C102.7,98.5 101.5,98.9 100.2,99.1 C98.9,99.4 97.7,99.5 96.7,99.5 C94.5,99.5 92.7,98.9 91.5,97.7 C90.3,96.5 89.6,94.7 89.6,92.5 L89.6,55.9 L89.7,55.9 Z" id="XMLID_47_"></path>
            <path d="M120,99.5 C117.9,99.5 116,99.1 114.2,98.2 C112.4,97.4 110.9,96.2 109.6,94.7 C108.3,93.2 107.3,91.5 106.6,89.6 C105.9,87.7 105.5,85.6 105.5,83.3 C105.5,81.1 105.8,79.1 106.5,77.2 C107.2,75.3 108.2,73.6 109.4,72.2 C110.6,70.7 112.1,69.6 113.8,68.7 C115.5,67.8 117.3,67.4 119.3,67.4 C121.8,67.4 124,68 125.8,69.2 C127.7,70.4 129.2,71.9 130.2,73.8 L130.2,55.9 L136.7,55.9 L136.7,91.3 C136.7,92 136.8,92.6 137.1,92.9 C137.4,93.2 137.8,93.4 138.5,93.4 L138.5,98.9 C137.8,99 137.3,99.1 136.9,99.1 C136.5,99.1 136.1,99.2 135.9,99.2 C134.6,99.2 133.5,98.9 132.7,98.2 C131.9,97.5 131.4,96.7 131.3,95.6 L131.2,93.3 C130.1,95.2 128.5,96.7 126.5,97.8 C124.6,99 122.4,99.5 120,99.5 Z M121.6,94 C122.5,94 123.5,93.8 124.4,93.5 C125.3,93.2 126.2,92.8 127,92.2 C127.8,91.6 128.5,91 129,90.3 C129.6,89.6 130,88.7 130.2,87.9 L130.2,79.8 C129.8,78.8 129.3,77.9 128.7,77.1 C128.1,76.3 127.3,75.6 126.5,75 C125.7,74.4 124.8,74 123.9,73.6 C123,73.3 122,73.1 121.1,73.1 C119.8,73.1 118.6,73.4 117.5,74 C116.4,74.6 115.5,75.4 114.7,76.4 C113.9,77.4 113.3,78.5 112.8,79.8 C112.3,81.1 112.1,82.4 112.1,83.7 C112.1,85.1 112.3,86.5 112.8,87.7 C113.3,89 114,90.1 114.8,91 C115.7,91.9 116.7,92.7 117.8,93.2 C119.1,93.7 120.3,94 121.6,94 Z" id="XMLID_43_"></path>
            <path d="M162.4,73.7 C159.9,73.8 157.7,74.4 155.7,75.4 C153.8,76.5 152.4,78 151.5,80 L151.5,99 L145,99 L145,68.1 L151,68.1 L151,75 C152.1,72.9 153.4,71.2 155.2,69.9 C156.9,68.6 158.7,67.9 160.7,67.8 C161.1,67.8 161.4,67.8 161.7,67.8 C162,67.8 162.2,67.8 162.4,67.9 L162.4,73.7 Z" id="XMLID_39_"></path>
        </g>
    </g>
</svg>