<?xml version="1.0" encoding="UTF-8"?>
<svg width="22px" height="16px" viewBox="0 0 22 16" version="1.1" xmlns="http://www.w3.org/2000/svg" xmlns:xlink="http://www.w3.org/1999/xlink">
    <!-- Generator: Sketch 51.2 (57519) - http://www.bohemiancoding.com/sketch -->
    <title>ic_visibility 1</title>
    <desc>Created with Sketch.</desc>
    <defs>
        <path d="M11,0.5 C6,0.5 1.73,3.61 0,8 C1.73,12.39 6,15.5 11,15.5 C16,15.5 20.27,12.39 22,8 C20.27,3.61 16,0.5 11,0.5 L11,0.5 Z M11,13 C8.24,13 6,10.76 6,8 C6,5.24 8.24,3 11,3 C13.76,3 16,5.24 16,8 C16,10.76 13.76,13 11,13 L11,13 Z M11,5 C9.34,5 8,6.34 8,8 C8,9.66 9.34,11 11,11 C12.66,11 14,9.66 14,8 C14,6.34 12.66,5 11,5 L11,5 Z" id="path-1"></path>
    </defs>
    <g id="Desktop_Matcher" stroke="none" stroke-width="1" fill="none" fill-rule="evenodd">
        <g id="02.1-Onboarding-SignIn" transform="translate(-890.000000, -515.000000)">
            <g id="ic_visibility-1" transform="translate(890.000000, 515.000000)">
                <mask id="mask-2" fill="white">
                    <use xlink:href="#path-1"></use>
                </mask>
                <use id="Mask" fill="#D1D1D1" xlink:href="#path-1"></use>
            </g>
        </g>
    </g>
</svg>